<svg width="142" height="16" viewBox="0 0 142 16" fill="none" xmlns="http://www.w3.org/2000/svg">
<path d="M1.296 12C1.14667 12 1.02933 11.952 0.944 11.856C0.869333 11.76 0.832 11.6213 0.832 11.44C0.832 11.1733 0.928 10.976 1.12 10.848C1.312 10.7093 1.568 10.64 1.888 10.64H2.032V2.24H1.296C1.14667 2.24 1.02933 2.192 0.944 2.096C0.869333 2 0.832 1.86133 0.832 1.68C0.832 1.41333 0.928 1.216 1.12 1.088C1.312 0.949333 1.568 0.879999 1.888 0.879999H5.44C5.55733 0.879999 5.63733 0.906666 5.68 0.959999C5.72267 1.01333 5.744 1.09333 5.744 1.2C5.744 1.34933 5.69067 1.47733 5.584 1.584C5.488 1.68 5.30667 1.792 5.04 1.92L4.432 2.224V10.656L5.04 10.96C5.30667 11.088 5.488 11.2053 5.584 11.312C5.69067 11.408 5.744 11.5307 5.744 11.68C5.744 11.7867 5.72267 11.8667 5.68 11.92C5.63733 11.9733 5.55733 12 5.44 12H1.296ZM7.60213 12C7.31413 12 7.17013 11.824 7.17013 11.472C7.17013 11.2267 7.25546 11.04 7.42613 10.912C7.60746 10.784 7.85279 10.72 8.16213 10.72H8.30613V5.408H7.60213C7.31413 5.408 7.17013 5.232 7.17013 4.88C7.17013 4.63467 7.25546 4.448 7.42613 4.32C7.60746 4.192 7.85279 4.128 8.16213 4.128H10.4501V5.088H10.5141C10.9088 4.74667 11.3301 4.47467 11.7781 4.272C12.2261 4.06933 12.6901 3.968 13.1701 3.968C13.9595 3.968 14.5995 4.192 15.0901 4.64C15.5808 5.07733 15.8261 5.68 15.8261 6.448V10.736L16.4021 11.024C16.6475 11.1413 16.8181 11.248 16.9141 11.344C17.0101 11.4293 17.0581 11.5467 17.0581 11.696C17.0581 11.8027 17.0368 11.8827 16.9941 11.936C16.9515 11.9787 16.8768 12 16.7701 12H12.8821C12.5941 12 12.4501 11.824 12.4501 11.472C12.4501 11.2267 12.5355 11.04 12.7061 10.912C12.8875 10.784 13.1328 10.72 13.4421 10.72H13.5861V6.656C13.5861 5.81333 13.1915 5.392 12.4021 5.392C12.0928 5.392 11.7728 5.48267 11.4421 5.664C11.1115 5.83467 10.8128 6.064 10.5461 6.352V10.736L11.1221 11.024C11.3675 11.1413 11.5381 11.248 11.6341 11.344C11.7301 11.4293 11.7781 11.5467 11.7781 11.696C11.7781 11.8027 11.7568 11.8827 11.7141 11.936C11.6715 11.9787 11.5968 12 11.4901 12H7.60213ZM18.162 5.408H17.586C17.298 5.408 17.154 5.232 17.154 4.88C17.154 4.63467 17.2393 4.448 17.41 4.32C17.5913 4.192 17.8367 4.128 18.146 4.128H21.474C21.5807 4.128 21.6553 4.15467 21.698 4.208C21.7407 4.25067 21.762 4.32533 21.762 4.432C21.762 4.57067 21.7087 4.69333 21.602 4.8C21.4953 4.896 21.33 4.99733 21.106 5.104L20.482 5.424L22.082 10.144C22.1247 10.2827 22.1673 10.448 22.21 10.64C22.2527 10.8213 22.2793 10.9387 22.29 10.992H22.354C22.3647 10.9387 22.3913 10.816 22.434 10.624C22.4767 10.432 22.5193 10.272 22.562 10.144L24.306 5.408H23.506C23.218 5.408 23.074 5.232 23.074 4.88C23.074 4.63467 23.1593 4.448 23.33 4.32C23.5113 4.192 23.7567 4.128 24.066 4.128H26.898C27.0047 4.128 27.0793 4.15467 27.122 4.208C27.1647 4.25067 27.186 4.32533 27.186 4.432C27.186 4.56 27.1273 4.67733 27.01 4.784C26.9033 4.88 26.7433 4.98667 26.53 5.104L25.938 5.424L23.474 12H20.594L18.162 5.408ZM31.8458 12.24C31.0458 12.24 30.3204 12.0907 29.6698 11.792C29.0298 11.4827 28.5178 11.024 28.1338 10.416C27.7604 9.79733 27.5738 9.05067 27.5738 8.176C27.5738 7.28 27.7498 6.51733 28.1018 5.888C28.4644 5.248 28.9498 4.768 29.5578 4.448C30.1764 4.128 30.8644 3.968 31.6218 3.968C32.3258 3.968 32.9604 4.10667 33.5258 4.384C34.0911 4.66133 34.5338 5.06133 34.8538 5.584C35.1738 6.096 35.3338 6.69333 35.3338 7.376C35.3338 7.6 35.3018 7.84 35.2378 8.096C35.1738 8.34133 35.0938 8.56 34.9978 8.752H29.8298C29.8298 9.46667 30.0378 10 30.4538 10.352C30.8804 10.704 31.3818 10.88 31.9578 10.88C32.3204 10.88 32.6351 10.8427 32.9018 10.768C33.1684 10.6827 33.4831 10.5387 33.8458 10.336C33.8778 10.3147 33.9364 10.2827 34.0218 10.24C34.1178 10.1867 34.1871 10.1547 34.2298 10.144C34.2831 10.1227 34.3311 10.112 34.3738 10.112C34.5338 10.112 34.6671 10.1707 34.7738 10.288C34.8911 10.4053 34.9498 10.56 34.9498 10.752C34.9498 10.9333 34.8964 11.0933 34.7898 11.232C34.6831 11.36 34.5124 11.4933 34.2778 11.632C33.5844 12.0373 32.7738 12.24 31.8458 12.24ZM32.9978 7.392C33.0618 7.24267 33.0938 7.07733 33.0938 6.896C33.0938 6.416 32.9604 6.03733 32.6938 5.76C32.4271 5.472 32.0591 5.328 31.5898 5.328C31.1204 5.328 30.7204 5.51467 30.3898 5.888C30.0591 6.25067 29.8724 6.752 29.8298 7.392H32.9978ZM36.6334 12C36.3454 12 36.2014 11.824 36.2014 11.472C36.2014 11.2267 36.2867 11.04 36.4574 10.912C36.6387 10.784 36.884 10.72 37.1934 10.72H37.3374V5.408H36.6334C36.3454 5.408 36.2014 5.232 36.2014 4.88C36.2014 4.63467 36.2867 4.448 36.4574 4.32C36.6387 4.192 36.884 4.128 37.1934 4.128H39.4814V5.088H39.5454C39.94 4.74667 40.3614 4.47467 40.8094 4.272C41.2574 4.06933 41.7214 3.968 42.2014 3.968C42.9907 3.968 43.6307 4.192 44.1214 4.64C44.612 5.07733 44.8574 5.68 44.8574 6.448V10.736L45.4334 11.024C45.6787 11.1413 45.8494 11.248 45.9454 11.344C46.0414 11.4293 46.0894 11.5467 46.0894 11.696C46.0894 11.8027 46.068 11.8827 46.0254 11.936C45.9827 11.9787 45.908 12 45.8014 12H41.9134C41.6254 12 41.4814 11.824 41.4814 11.472C41.4814 11.2267 41.5667 11.04 41.7374 10.912C41.9187 10.784 42.164 10.72 42.4734 10.72H42.6174V6.656C42.6174 5.81333 42.2227 5.392 41.4334 5.392C41.124 5.392 40.804 5.48267 40.4734 5.664C40.1427 5.83467 39.844 6.064 39.5774 6.352V10.736L40.1534 11.024C40.3987 11.1413 40.5694 11.248 40.6654 11.344C40.7614 11.4293 40.8094 11.5467 40.8094 11.696C40.8094 11.8027 40.788 11.8827 40.7454 11.936C40.7027 11.9787 40.628 12 40.5214 12H36.6334ZM50.8253 12.24C50.0999 12.24 49.4866 12.0267 48.9853 11.6C48.4946 11.1733 48.2493 10.592 48.2493 9.856V5.568H47.1453C47.0066 5.568 46.8946 5.52 46.8092 5.424C46.7239 5.31733 46.6813 5.17867 46.6813 5.008C46.6813 4.752 46.7719 4.55467 46.9533 4.416C47.1346 4.27733 47.3746 4.208 47.6733 4.208H48.2812L48.6173 2.368H50.4893V4.208H52.9693C53.0439 4.208 53.1079 4.23467 53.1613 4.288C53.2253 4.33067 53.2573 4.39467 53.2573 4.48C53.2573 4.68267 53.1773 4.84267 53.0173 4.96C52.8679 5.06667 52.6226 5.152 52.2813 5.216L50.4893 5.568V10C50.4893 10.2987 50.5639 10.5227 50.7133 10.672C50.8733 10.8107 51.0866 10.88 51.3533 10.88C51.6519 10.88 51.9506 10.768 52.2493 10.544C52.2919 10.512 52.3613 10.4587 52.4573 10.384C52.5533 10.3093 52.6493 10.272 52.7453 10.272C52.9053 10.272 53.0386 10.3253 53.1453 10.432C53.2519 10.528 53.3053 10.6667 53.3053 10.848C53.3053 11.1573 53.0706 11.4613 52.6013 11.76C52.0893 12.08 51.4973 12.24 50.8253 12.24ZM57.9659 12.24C57.2192 12.24 56.5365 12.0907 55.9179 11.792C55.3099 11.4933 54.8192 11.0347 54.4459 10.416C54.0725 9.78667 53.8859 9.01333 53.8859 8.096C53.8859 7.17867 54.0672 6.41067 54.4299 5.792C54.8032 5.17333 55.2992 4.71467 55.9179 4.416C56.5365 4.11733 57.2192 3.968 57.9659 3.968C58.7125 3.968 59.3952 4.11733 60.0139 4.416C60.6325 4.71467 61.1232 5.17333 61.4859 5.792C61.8592 6.41067 62.0459 7.17867 62.0459 8.096C62.0459 9.01333 61.8592 9.78667 61.4859 10.416C61.1125 11.0347 60.6165 11.4933 59.9979 11.792C59.3899 12.0907 58.7125 12.24 57.9659 12.24ZM57.9659 10.88C58.5632 10.88 59.0165 10.6453 59.3259 10.176C59.6352 9.696 59.7899 9.00267 59.7899 8.096C59.7899 7.18933 59.6352 6.50133 59.3259 6.032C59.0165 5.56267 58.5632 5.328 57.9659 5.328C57.3685 5.328 56.9152 5.56267 56.6059 6.032C56.2965 6.50133 56.1419 7.18933 56.1419 8.096C56.1419 9.00267 56.2965 9.696 56.6059 10.176C56.9152 10.6453 57.3685 10.88 57.9659 10.88ZM63.2271 12C62.9391 12 62.7951 11.824 62.7951 11.472C62.7951 11.2267 62.8805 11.04 63.0511 10.912C63.2325 10.784 63.4778 10.72 63.7871 10.72H63.9311V5.408H63.2271C62.9391 5.408 62.7951 5.232 62.7951 4.88C62.7951 4.63467 62.8805 4.448 63.0511 4.32C63.2325 4.192 63.4778 4.128 63.7871 4.128H66.0751V5.76H66.1391C66.5018 5.248 66.9285 4.82133 67.4191 4.48C67.9098 4.13867 68.3951 3.968 68.8751 3.968C69.2378 3.968 69.5151 4.07467 69.7071 4.288C69.8991 4.49067 69.9951 4.74133 69.9951 5.04C69.9951 5.232 69.9578 5.41867 69.8831 5.6C69.8191 5.78133 69.7338 5.93067 69.6271 6.048C68.3045 6.048 67.1525 6.41067 66.1711 7.136V10.736L66.7471 11.024C66.9925 11.1413 67.1631 11.248 67.2591 11.344C67.3551 11.4293 67.4031 11.5467 67.4031 11.696C67.4031 11.8027 67.3818 11.8827 67.3391 11.936C67.2965 11.9787 67.2218 12 67.1151 12H63.2271ZM72.0793 15.648C71.7166 15.648 71.4179 15.5467 71.1833 15.344C70.9486 15.152 70.8313 14.8907 70.8313 14.56C70.8313 14.3147 70.9059 14.0693 71.0553 13.824C71.7379 13.824 72.2819 13.7333 72.6873 13.552C73.0926 13.3707 73.4286 12.992 73.6953 12.416L73.8873 12L70.9753 5.408H70.3993C70.1113 5.408 69.9672 5.232 69.9672 4.88C69.9672 4.63467 70.0526 4.448 70.2233 4.32C70.4046 4.192 70.6499 4.128 70.9593 4.128H74.2873C74.3939 4.128 74.4686 4.15467 74.5113 4.208C74.5539 4.25067 74.5753 4.32533 74.5753 4.432C74.5753 4.57067 74.5219 4.69333 74.4153 4.8C74.3086 4.896 74.1433 4.99733 73.9193 5.104L73.2953 5.424L74.8793 9.136C74.9326 9.264 74.9646 9.41333 74.9753 9.584C74.9966 9.75467 75.0073 9.86667 75.0073 9.92H75.0873C75.0873 9.86667 75.0979 9.75467 75.1193 9.584C75.1406 9.40267 75.1726 9.25333 75.2153 9.136L76.9273 5.408H76.1273C75.8393 5.408 75.6953 5.232 75.6953 4.88C75.6953 4.63467 75.7806 4.448 75.9513 4.32C76.1326 4.192 76.3779 4.128 76.6873 4.128H79.5193C79.6259 4.128 79.7006 4.15467 79.7433 4.208C79.7859 4.25067 79.8073 4.32533 79.8073 4.432C79.8073 4.56 79.7486 4.67733 79.6313 4.784C79.5246 4.88 79.3646 4.98667 79.1513 5.104L78.5593 5.424L75.5513 12.096C75.1993 12.8853 74.8686 13.5253 74.5593 14.016C74.2606 14.5067 73.9086 14.9013 73.5033 15.2C73.0979 15.4987 72.6233 15.648 72.0793 15.648ZM88.6553 12.24C87.9939 12.24 87.2793 12.1493 86.5113 11.968C85.7539 11.776 85.1459 11.5467 84.6873 11.28V8.608C84.6873 8.49067 84.7193 8.4 84.7833 8.336C84.8473 8.26133 84.9433 8.224 85.0713 8.224C85.2739 8.224 85.4339 8.29867 85.5513 8.448C85.6686 8.59733 85.8019 8.90133 85.9513 9.36L86.2553 10.256C86.4686 10.384 86.7726 10.496 87.1673 10.592C87.5726 10.688 87.9886 10.736 88.4153 10.736C89.0233 10.736 89.5353 10.6347 89.9513 10.432C90.3673 10.2187 90.5753 9.888 90.5753 9.44C90.5753 9.13067 90.5006 8.86933 90.3513 8.656C90.2126 8.432 89.9779 8.21867 89.6473 8.016C89.3166 7.80267 88.8259 7.54667 88.1753 7.248C87.4606 6.91733 86.8633 6.59733 86.3832 6.288C85.9033 5.97867 85.5086 5.60533 85.1993 5.168C84.8899 4.72 84.7353 4.20267 84.7353 3.616C84.7353 2.96533 84.9166 2.416 85.2793 1.968C85.6419 1.52 86.1166 1.18933 86.7033 0.976C87.2899 0.752 87.9299 0.639999 88.6233 0.639999C89.3273 0.639999 90.0153 0.741333 90.6873 0.943999C91.3593 1.14667 91.9246 1.41867 92.3833 1.76V4.24C92.3833 4.35733 92.3513 4.45333 92.2873 4.528C92.2233 4.592 92.1273 4.624 91.9993 4.624C91.7966 4.624 91.6366 4.54933 91.5193 4.4C91.4019 4.25067 91.2686 3.94667 91.1193 3.488L90.8153 2.592C90.2819 2.29333 89.6206 2.144 88.8313 2.144C88.3193 2.144 87.9086 2.24533 87.5993 2.448C87.2899 2.65067 87.1353 2.94933 87.1353 3.344C87.1353 3.6 87.2206 3.82933 87.3913 4.032C87.5619 4.224 87.7966 4.40533 88.0953 4.576C88.3939 4.74667 88.8419 4.976 89.4393 5.264L90.0793 5.568C90.6979 5.86667 91.2099 6.16533 91.6153 6.464C92.0206 6.76267 92.3459 7.136 92.5913 7.584C92.8473 8.02133 92.9753 8.54933 92.9753 9.168C92.9753 10.192 92.5753 10.96 91.7753 11.472C90.9859 11.984 89.9459 12.24 88.6553 12.24ZM95.673 15.648C95.3103 15.648 95.0117 15.5467 94.777 15.344C94.5423 15.152 94.425 14.8907 94.425 14.56C94.425 14.3147 94.4997 14.0693 94.649 13.824C95.3317 13.824 95.8757 13.7333 96.281 13.552C96.6863 13.3707 97.0223 12.992 97.289 12.416L97.481 12L94.569 5.408H93.993C93.705 5.408 93.561 5.232 93.561 4.88C93.561 4.63467 93.6463 4.448 93.817 4.32C93.9983 4.192 94.2437 4.128 94.553 4.128H97.881C97.9877 4.128 98.0623 4.15467 98.105 4.208C98.1477 4.25067 98.169 4.32533 98.169 4.432C98.169 4.57067 98.1157 4.69333 98.009 4.8C97.9023 4.896 97.737 4.99733 97.513 5.104L96.889 5.424L98.473 9.136C98.5263 9.264 98.5583 9.41333 98.569 9.584C98.5903 9.75467 98.601 9.86667 98.601 9.92H98.681C98.681 9.86667 98.6917 9.75467 98.713 9.584C98.7343 9.40267 98.7663 9.25333 98.809 9.136L100.521 5.408H99.721C99.433 5.408 99.289 5.232 99.289 4.88C99.289 4.63467 99.3743 4.448 99.545 4.32C99.7263 4.192 99.9717 4.128 100.281 4.128H103.113C103.22 4.128 103.294 4.15467 103.337 4.208C103.38 4.25067 103.401 4.32533 103.401 4.432C103.401 4.56 103.342 4.67733 103.225 4.784C103.118 4.88 102.958 4.98667 102.745 5.104L102.153 5.424L99.145 12.096C98.793 12.8853 98.4623 13.5253 98.153 14.016C97.8543 14.5067 97.5023 14.9013 97.097 15.2C96.6917 15.4987 96.217 15.648 95.673 15.648ZM106.929 12.24C106.342 12.24 105.755 12.1547 105.169 11.984C104.593 11.8133 104.145 11.6107 103.825 11.376V9.504C103.825 9.39733 103.857 9.30667 103.921 9.232C103.995 9.15733 104.102 9.12 104.241 9.12C104.603 9.12 104.843 9.36 104.961 9.84L105.137 10.496C105.286 10.6133 105.505 10.7093 105.793 10.784C106.081 10.848 106.385 10.88 106.705 10.88C107.569 10.88 108.001 10.6507 108.001 10.192C108.001 9.97867 107.91 9.80267 107.729 9.664C107.547 9.52533 107.174 9.31733 106.609 9.04L106.049 8.768C105.227 8.352 104.651 7.968 104.321 7.616C103.99 7.25333 103.825 6.78933 103.825 6.224C103.825 5.54133 104.118 4.99733 104.705 4.592C105.291 4.176 106.027 3.968 106.913 3.968C107.521 3.968 108.091 4.06933 108.625 4.272C109.158 4.464 109.585 4.688 109.905 4.944V6.72C109.905 6.82667 109.867 6.912 109.793 6.976C109.729 7.04 109.627 7.072 109.489 7.072C109.126 7.072 108.886 6.83733 108.769 6.368L108.577 5.664C108.203 5.44 107.755 5.328 107.233 5.328C106.881 5.328 106.598 5.392 106.385 5.52C106.171 5.63733 106.065 5.81867 106.065 6.064C106.065 6.27733 106.139 6.44267 106.289 6.56C106.449 6.67733 106.806 6.88 107.361 7.168L108.145 7.568C108.902 7.96267 109.441 8.336 109.761 8.688C110.081 9.02933 110.241 9.488 110.241 10.064C110.241 10.8213 109.921 11.376 109.281 11.728C108.651 12.0693 107.867 12.24 106.929 12.24ZM114.81 12.24C114.084 12.24 113.471 12.0267 112.97 11.6C112.479 11.1733 112.234 10.592 112.234 9.856V5.568H111.13C110.991 5.568 110.879 5.52 110.794 5.424C110.708 5.31733 110.666 5.17867 110.666 5.008C110.666 4.752 110.756 4.55467 110.938 4.416C111.119 4.27733 111.359 4.208 111.658 4.208H112.266L112.602 2.368H114.474V4.208H116.954C117.028 4.208 117.092 4.23467 117.146 4.288C117.21 4.33067 117.242 4.39467 117.242 4.48C117.242 4.68267 117.162 4.84267 117.002 4.96C116.852 5.06667 116.607 5.152 116.266 5.216L114.474 5.568V10C114.474 10.2987 114.548 10.5227 114.698 10.672C114.858 10.8107 115.071 10.88 115.338 10.88C115.636 10.88 115.935 10.768 116.234 10.544C116.276 10.512 116.346 10.4587 116.442 10.384C116.538 10.3093 116.634 10.272 116.73 10.272C116.89 10.272 117.023 10.3253 117.13 10.432C117.236 10.528 117.29 10.6667 117.29 10.848C117.29 11.1573 117.055 11.4613 116.586 11.76C116.074 12.08 115.482 12.24 114.81 12.24ZM122.315 12.24C121.515 12.24 120.789 12.0907 120.139 11.792C119.499 11.4827 118.987 11.024 118.603 10.416C118.229 9.79733 118.043 9.05067 118.043 8.176C118.043 7.28 118.219 6.51733 118.571 5.888C118.933 5.248 119.419 4.768 120.027 4.448C120.645 4.128 121.333 3.968 122.091 3.968C122.795 3.968 123.429 4.10667 123.995 4.384C124.56 4.66133 125.003 5.06133 125.323 5.584C125.643 6.096 125.803 6.69333 125.803 7.376C125.803 7.6 125.771 7.84 125.707 8.096C125.643 8.34133 125.563 8.56 125.467 8.752H120.299C120.299 9.46667 120.507 10 120.923 10.352C121.349 10.704 121.851 10.88 122.427 10.88C122.789 10.88 123.104 10.8427 123.371 10.768C123.637 10.6827 123.952 10.5387 124.315 10.336C124.347 10.3147 124.405 10.2827 124.491 10.24C124.587 10.1867 124.656 10.1547 124.699 10.144C124.752 10.1227 124.8 10.112 124.843 10.112C125.003 10.112 125.136 10.1707 125.243 10.288C125.36 10.4053 125.419 10.56 125.419 10.752C125.419 10.9333 125.365 11.0933 125.259 11.232C125.152 11.36 124.981 11.4933 124.747 11.632C124.053 12.0373 123.243 12.24 122.315 12.24ZM123.467 7.392C123.531 7.24267 123.563 7.07733 123.563 6.896C123.563 6.416 123.429 6.03733 123.163 5.76C122.896 5.472 122.528 5.328 122.059 5.328C121.589 5.328 121.189 5.51467 120.859 5.888C120.528 6.25067 120.341 6.752 120.299 7.392H123.467ZM127.102 12C126.814 12 126.67 11.824 126.67 11.472C126.67 11.2267 126.755 11.04 126.926 10.912C127.107 10.784 127.353 10.72 127.662 10.72H127.806V5.408H127.102C126.814 5.408 126.67 5.232 126.67 4.88C126.67 4.63467 126.755 4.448 126.926 4.32C127.107 4.192 127.353 4.128 127.662 4.128H129.95V5.088H130.014C130.921 4.34133 131.806 3.968 132.67 3.968C133.182 3.968 133.63 4.07467 134.014 4.288C134.409 4.50133 134.707 4.80533 134.91 5.2C135.838 4.37867 136.782 3.968 137.742 3.968C138.489 3.968 139.097 4.18133 139.566 4.608C140.046 5.03467 140.286 5.632 140.286 6.4V10.736L140.862 11.024C141.086 11.1413 141.241 11.248 141.326 11.344C141.422 11.44 141.47 11.5573 141.47 11.696C141.47 11.8027 141.449 11.8827 141.406 11.936C141.363 11.9787 141.289 12 141.182 12H137.406C137.118 12 136.974 11.824 136.974 11.472C136.974 11.2267 137.059 11.04 137.23 10.912C137.411 10.784 137.657 10.72 137.966 10.72H138.046V6.608C138.046 6.20267 137.961 5.89867 137.79 5.696C137.63 5.49333 137.347 5.392 136.942 5.392C136.633 5.392 136.318 5.47733 135.998 5.648C135.689 5.808 135.411 6.01067 135.166 6.256V10.736L135.742 11.024C135.966 11.1413 136.121 11.248 136.206 11.344C136.302 11.44 136.35 11.5573 136.35 11.696C136.35 11.8027 136.329 11.8827 136.286 11.936C136.243 11.9787 136.169 12 136.062 12H132.286C131.998 12 131.854 11.824 131.854 11.472C131.854 11.2267 131.939 11.04 132.11 10.912C132.291 10.784 132.537 10.72 132.846 10.72H132.926V6.608C132.926 6.20267 132.841 5.89867 132.67 5.696C132.51 5.49333 132.227 5.392 131.822 5.392C131.513 5.392 131.198 5.47733 130.878 5.648C130.569 5.808 130.291 6.01067 130.046 6.256V10.736L130.622 11.024C130.846 11.1413 131.001 11.248 131.086 11.344C131.182 11.44 131.23 11.5573 131.23 11.696C131.23 11.8027 131.209 11.8827 131.166 11.936C131.123 11.9787 131.049 12 130.942 12H127.102Z" fill="white"/>
</svg>