<svg width="50" height="50" viewBox="0 0 50 50" fill="none" xmlns="http://www.w3.org/2000/svg">
<g clip-path="url(#clip0_230_63)">
<path d="M25.119 28.6907L25 50.0002C25.5952 50.0002 26.1905 49.8812 26.7857 49.524L44.5238 38.8098C45.119 38.4526 45.4762 37.9764 45.8333 37.5002C46.1905 36.905 46.3095 36.3098 46.3095 35.7145V16.5479L26.7857 28.3336C26.3095 28.5717 25.7143 28.6907 25.119 28.6907Z" fill="#FFE27F"/>
<path d="M23.3332 28.2143L3.57129 16.4286V35.7143C3.57129 36.3095 3.69034 37.0238 4.04748 37.5C4.40462 38.0952 4.76177 38.5714 5.357 38.8095L23.2141 49.5238C23.8094 49.881 24.4046 50 24.9999 50V28.6905C24.5237 28.6905 23.8094 28.5714 23.3332 28.2143ZM45.9522 12.5C45.5951 11.9048 45.238 11.4286 44.6427 11.1905L26.7856 0.47619C26.5475 0.357143 26.1903 0.238095 25.9522 0.119048H25.7141C25.357 0 25.238 0 24.9999 0C24.7618 0 24.6427 0 24.4046 0.119048H24.0475C23.6903 0.238095 23.4522 0.357143 23.2141 0.47619L5.47605 11.1905C4.88081 11.5476 4.52367 12.0238 4.16653 12.5L25.1189 25L45.9522 12.5Z" fill="#FFC600"/>
<path d="M45.9522 12.5L25.1189 25.119V28.8095C25.7141 28.8095 26.4284 28.6905 26.9046 28.3333L46.4284 16.4286V14.2857C46.4284 13.6905 46.3094 13.0952 45.9522 12.5ZM25.1189 28.6905V25L4.04748 12.5C3.80938 13.0952 3.69034 13.6905 3.57129 14.2857V16.4286L23.2141 28.2143C23.8094 28.5714 24.5237 28.6905 25.1189 28.6905ZM23.2141 0.47619C23.4522 0.357143 23.8094 0.238095 24.0475 0.119048C23.6903 0.238095 23.4522 0.357143 23.2141 0.47619Z" fill="white"/>
<path d="M44.6431 38.8095C45.2383 38.4524 45.5954 37.9762 45.9526 37.5C45.5954 37.9762 45.1193 38.4524 44.6431 38.8095Z" fill="#FFE27F"/>
<path d="M25.0002 50C24.405 50 23.8098 49.881 23.2145 49.5238L5.35738 38.8095C4.76214 38.4524 4.40499 37.9762 4.04785 37.5C4.40499 38.0952 4.76214 38.5714 5.35738 38.8095" fill="#FFC600"/>
</g>
<defs>
<clipPath id="clip0_230_63">
<rect width="50" height="50" fill="white"/>
</clipPath>
</defs>
</svg>